<?xml version="1.0" encoding="UTF-8" standalone="no"?>
<!-- Uploaded to: SVG Repo, www.svgrepo.com, Generator: SVG Repo Mixer Tools -->

<svg
   fill="#000000"
   version="1.1"
   id="Capa_1"
   width="16"
   height="16"
   viewBox="0 0 0.91946 0.91946"
   xml:space="preserve"
   sodipodi:docname="Part.svg"
   inkscape:version="1.4 (86a8ad7, 2024-10-11)"
   xmlns:inkscape="http://www.inkscape.org/namespaces/inkscape"
   xmlns:sodipodi="http://sodipodi.sourceforge.net/DTD/sodipodi-0.dtd"
   xmlns="http://www.w3.org/2000/svg"
   xmlns:svg="http://www.w3.org/2000/svg"><defs
   id="defs2" /><sodipodi:namedview
   id="namedview2"
   pagecolor="#505050"
   bordercolor="#ffffff"
   borderopacity="1"
   inkscape:showpageshadow="0"
   inkscape:pageopacity="0"
   inkscape:pagecheckerboard="1"
   inkscape:deskcolor="#505050"
   inkscape:document-units="mm"
   inkscape:zoom="45.32"
   inkscape:cx="7.6456311"
   inkscape:cy="11.4188"
   inkscape:window-width="2560"
   inkscape:window-height="1351"
   inkscape:window-x="2391"
   inkscape:window-y="-9"
   inkscape:window-maximized="1"
   inkscape:current-layer="Capa_1" />
<path
   d="m 0.84713327,0.37374353 h -0.0461258 c -0.008574,-0.0334255 -0.0219556,-0.0647312 -0.0394065,-0.0933681 l 0.0331605,-0.0332363 c 0.008952,-0.008952 0.0138737,-0.0208957 0.0138737,-0.0335769 0,-0.0126623 -0.004959,-0.0246243 -0.0138737,-0.0335581 l -0.0552675,-0.0552108 c -0.0179242,-0.017943 -0.0492488,-0.0179241 -0.0670972,-1.889e-5 l -0.0345612,0.034353 c -0.0283151,-0.0165046 -0.0586745,-0.0292237 -0.092119,-0.0374003 V 0.07236475 c 5e-8,-0.0261764 -0.0209145,-0.0476967 -0.047091,-0.0476967 h -0.0781318 c -0.0261763,0 -0.0467692,0.0215203 -0.0467692,0.0476967 v 0.04934337 c -0.0334256,0.008158 -0.0639742,0.0208957 -0.0923271,0.0374193 l -0.0345423,-0.034353 c -0.0179052,-0.0179431 -0.0492487,-0.0179241 -0.0672107,-1.893e-5 l -0.0552297,0.0552108 c -0.008858,0.008839 -0.0139115,0.021066 -0.0139115,0.033558 0,0.0126623 0.004902,0.0245866 0.0138737,0.0335391 l 0.0331606,0.033312 c -0.017432,0.0286369 -0.0308325,0.0599426 -0.0393876,0.0933681 H 0.07200512 c -0.02619533,9e-8 -0.04733708,0.0210473 -0.04733708,0.0471668 v 0.078075 c 0,0.0261953 0.02114175,0.0467693 0.04733708,0.0467693 h 0.04614467 c 0.008555,0.0334254 0.0219367,0.0649205 0.0393497,0.0935575 l -0.0331605,0.0333688 c -0.008971,0.008952 -0.0138926,0.0209335 -0.0138926,0.0336148 0,0.0126813 0.00494,0.0246622 0.0138926,0.0336148 l 0.0552676,0.0552487 c 0.008971,0.008952 0.0208767,0.0138737 0.0335391,0.0138737 0.0126623,0 0.0245866,-0.00494 0.033558,-0.0138737 l 0.0346936,-0.034372 c 0.028353,0.0165235 0.0589017,0.0292426 0.0923271,0.037438 v 0.0492866 c 0,0.0261764 0.0205928,0.0472803 0.0467693,0.0472803 h 0.0781318 c 0.0261764,0 0.047091,-0.0211039 0.047091,-0.0472803 v -0.0493054 c 0.0334444,-0.008176 0.0638038,-0.0208957 0.0921568,-0.0374193 l 0.0343908,0.0342962 c 0.008971,0.00899 0.0208957,0.0139115 0.0335959,0.0139115 0.0126813,0 0.0246243,-0.00494 0.033577,-0.0138736 l 0.0552676,-0.0552108 c 0.008952,-0.008934 0.0138548,-0.0208767 0.0138926,-0.0335391 0,-0.0126813 -0.004959,-0.0245865 -0.0138926,-0.0335581 L 0.7615819,0.63931182 C 0.778995,0.61065592 0.7923766,0.57914202 0.8009506,0.54575432 h 0.0461447 c 0.0261764,0 0.0476967,-0.020574 0.0476967,-0.0467693 v -0.078075 c 1.892e-5,-0.0261196 -0.0214824,-0.0471667 -0.0476587,-0.0471665 z M 0.4595408,0.60857407 c -0.0828636,0 -0.15005533,-0.0665672 -0.15005533,-0.14861686 0,-0.0821064 0.0671917,-0.14857901 0.15005533,-0.14857901 0.0828825,0 0.15011212,0.0664726 0.15011212,0.14857901 -1.893e-5,0.0820686 -0.0672297,0.14861686 -0.15011212,0.14861686 z"
   id="path1"
   inkscape:label="Part"
   style="fill:#e0e0e0;fill-opacity:1;stroke:none;stroke-width:0.0189273" />
</svg>
