<?xml version="1.0" encoding="UTF-8" standalone="no"?>
<!-- Created with Inkscape (http://www.inkscape.org/) -->

<svg
   width="16"
   height="15.999999"
   viewBox="0 0 4.2333332 4.233333"
   version="1.1"
   id="svg1"
   sodipodi:docname="Passives.svg"
   inkscape:version="1.4 (86a8ad7, 2024-10-11)"
   xmlns:inkscape="http://www.inkscape.org/namespaces/inkscape"
   xmlns:sodipodi="http://sodipodi.sourceforge.net/DTD/sodipodi-0.dtd"
   xmlns="http://www.w3.org/2000/svg"
   xmlns:svg="http://www.w3.org/2000/svg">
  <sodipodi:namedview
     id="namedview1"
     pagecolor="#505050"
     bordercolor="#ffffff"
     borderopacity="1"
     inkscape:showpageshadow="0"
     inkscape:pageopacity="0"
     inkscape:pagecheckerboard="1"
     inkscape:deskcolor="#505050"
     showgrid="false"
     inkscape:zoom="35.406252"
     inkscape:cx="6.0582521"
     inkscape:cy="7.9505732"
     inkscape:window-width="2560"
     inkscape:window-height="1351"
     inkscape:window-x="2391"
     inkscape:window-y="-9"
     inkscape:window-maximized="1"
     inkscape:current-layer="svg1" />
  <defs
     id="defs1">
    <linearGradient
       id="swatch5">
      <stop
         style="stop-color:#000000;stop-opacity:1;"
         offset="0"
         id="stop5" />
    </linearGradient>
  </defs>
  <path
     d="m 3.3376388,1.3783164 q 0,0.2482058 -0.08775,0.4613118 Q 3.1646469,2.050227 3.0092049,2.205669 2.8161559,2.3987179 2.5529074,2.4964959 2.2896589,2.5917669 1.8885182,2.5917669 H 1.3921067 V 3.9832234 H 0.89569514 V 0.25010838 H 1.9085753 q 0.3359552,0 0.5691182,0.057664 0.233163,0.0551568 0.4136763,0.17549902 0.213106,0.14290636 0.3284339,0.35601232 0.1178351,0.21310601 0.1178351,0.53903271 z m -0.5164686,0.012536 q 0,-0.193049 -0.067693,-0.3359553 Q 2.6857852,0.91199043 2.5478931,0.82173379 2.427551,0.74401279 2.272109,0.71142011 2.1191741,0.67632031 1.883504,0.67632031 H 1.3921067 V 2.1680621 h 0.4186905 q 0.3008555,0 0.4888902,-0.05265 0.1880347,-0.055157 0.3058697,-0.1729919 0.1178351,-0.1203421 0.1654705,-0.25322 0.050143,-0.1328778 0.050143,-0.2983483 z"
     id="text1"
     style="font-size:5.1346px;fill:#e0e0e0;stroke:#e0e0e0;stroke-width:0.339611;stroke-linecap:round;stroke-linejoin:round;paint-order:markers fill stroke"
     aria-label="P" />
</svg>
